<!--<?xml version="1.0" encoding="UTF-8" standalone="no"?>-->
<svg xmlns:rdf="http://www.w3.org/1999/02/22-rdf-syntax-ns#" xmlns="http://www.w3.org/2000/svg" height="616" width="616" version="1.1" xmlns:cc="http://creativecommons.org/ns#" xmlns:dc="http://purl.org/dc/elements/1.1/" viewBox="0 0 615.72999 615.72999">
<path fill="#3480c5" d="m201 596 52.2-10.7c5.48-1.37 10-4.25 13.6-8.63 3.84-4.38 5.76-9.73 5.76-16v-506c0-6.3-1.92-11.5-5.76-15.6-3.56-4.11-8.08-7.13-13.6-9.04l-52.2-10.7v-19.3h215v19.3l-52.2 10.7c-5.48 1.37-10.1 4.25-14 8.63-3.56 4.38-5.34 9.73-5.34 16v17.8c21.4 0.822 42.1 2.88 62.1 6.17 20.3 3.29 39.2 8.22 56.7 14.8 17.5 6.3 33.7 14.5 48.5 24.7 14.8 9.87 27.4 21.9 37.8 36.2 10.4 14 18.5 30.3 24.3 48.9 6.03 18.6 9.04 39.9 9.04 63.7 0 30.4-6.58 57.4-19.7 81-12.9 23.6-30.3 43.6-52.2 60-21.9 16.2-47.3 28.8-76 37.8-28.8 8.77-58.9 13.6-90.4 14.4v101c0 6.3 1.78 11.6 5.34 16 3.84 4.38 8.5 7.26 14 8.63l52.2 10.7v19.3h-215zm143-163c26.3-1.64 49.2-6.85 68.6-15.6 19.7-8.77 36.2-20.4 49.3-34.9 13.2-14.5 22.9-31.7 29.2-51.4 6.58-19.7 9.87-41.4 9.87-64.9 0-28.8-3.29-53.4-9.87-74-6.3-20.6-16-37.4-29.2-50.6-13-13-29-23-49-30-19-7-43-11-69-12z"/>
<path fill="#4eabff" d="m272 460c-31.5-0.822-61.7-5.62-90.4-14.4-28.8-9.04-54.1-21.6-76-37.8-21.9-16.4-39.5-36.4-52.6-60-12.9-23.6-19.3-50.6-19.3-81 0-35.6 6.3-65.6 18.9-90 12.9-24.4 30.1-44.1 51.8-59.2 21.9-15.1 47.3-26 76-32.9 29-7.13 59.6-11.2 91.7-12.3l-0.411 26.7c-25.2 1.64-47.5 5.89-67 12.7-19.5 6.85-35.9 17-49.3 30.4-13.2 13.2-23.3 30-30.4 50.6-6.85 20.6-10.3 45.2-10.3 74 0 23.6 3.29 45.2 9.87 64.9s16.3 36.9 29.2 51.4c13.2 14.5 29.5 26.2 48.9 34.9 19.7 8.77 42.8 14 69.1 15.6z"/>
</svg>
