<?xml version="1.0" encoding="UTF-8" standalone="no"?>
<svg xmlns:dc="http://purl.org/dc/elements/1.1/" xmlns:cc="http://creativecommons.org/ns#" xmlns:rdf="http://www.w3.org/1999/02/22-rdf-syntax-ns#" xmlns:svg="http://www.w3.org/2000/svg" xmlns="http://www.w3.org/2000/svg" xmlns:sodipodi="http://sodipodi.sourceforge.net/DTD/sodipodi-0.dtd" xmlns:inkscape="http://www.inkscape.org/namespaces/inkscape" width="616" height="616" viewBox="0 0 616.00001 616.00001" id="svg2" version="1.1" inkscape:version="0.91 r13725" sodipodi:docname="logo-saberatual-2016.svg">
<path sodipodi:nodetypes="cccccccccccccsccccccsccccsccccccccscsccccc" style="font-style:normal;font-variant:normal;font-weight:normal;font-stretch:normal;font-size:medium;line-height:125%;font-family:'Sitka Banner';-inkscape-font-specification:'Sitka Banner';letter-spacing:0px;word-spacing:0px;fill:#3480c5;fill-opacity:1;stroke:none;stroke-width:1px;stroke-linecap:butt;stroke-linejoin:miter;stroke-opacity:1" d="m 200.50447,596.43052 52.20625,-10.68789 c 5.48097,-1.37025 10.00277,-4.24776 13.5654,-8.63253 3.83668,-4.38477 5.75502,-9.72871 5.75502,-16.03184 l 0,-506.15652 c 0,-6.30312 -1.91834,-11.51004 -5.75502,-15.62077 -3.56263,-4.11073 -8.08443,-7.12526 -13.5654,-9.0436 l -52.20625,-10.68789 0,-19.32043 214.99107,0 0,19.32043 -52.20626,10.68789 c -5.48097,1.37024 -10.13979,4.24775 -13.97647,8.63253 -3.56263,4.38477 -5.34395,9.72872 -5.34395,16.03184 l 0,17.81869 c 21.37579,0.82215 42.06645,2.8775 62.07199,6.16609 20.27959,3.28859 39.18894,8.22145 56.72806,14.79863 17.53911,6.30311 33.70797,14.52456 48.50658,24.66435 14.79862,9.86575 27.40485,21.92388 37.81869,36.17442 10.41385,13.97647 18.49828,30.28236 24.2533,48.91766 6.02907,18.6353 9.0436,39.87406 9.0436,63.71628 0,30.41939 -6.57717,57.41317 -19.7315,80.98134 -12.88028,23.56817 -30.28236,43.57371 -52.20624,60.01662 -21.92388,16.16887 -47.27337,28.7751 -76.04846,37.8187 -28.7751,8.76955 -58.92044,13.5654 -90.43602,14.38755 l 0,100.6962 c 0,6.30312 1.78132,11.64707 5.34395,16.03184 3.83668,4.38477 8.4955,7.26228 13.97647,8.63253 l 52.20625,10.68789 0,19.32042 -214.99107,0 z M 344.37995,434.0734 c 26.30865,-1.64428 49.19169,-6.85122 68.64914,-15.62077 19.73149,-8.76955 36.1744,-20.41661 49.32873,-34.94118 13.15433,-14.52457 22.88306,-31.65261 29.18617,-51.3841 6.57717,-19.73149 9.86575,-41.38133 9.86575,-64.9495 0,-28.77509 -3.28858,-53.43946 -9.86575,-73.9931 -6.30311,-20.55363 -16.03184,-37.40762 -29.18617,-50.56195 -12.88028,-13.42838 -29.18617,-23.56818 -48.91766,-30.41939 -19.45744,-6.85121 -42.47751,-11.09897 -69.06022,-12.74326 z" id="path4152" inkscape:connector-curvature="0" />
<path style="font-style:normal;font-variant:normal;font-weight:normal;font-stretch:normal;font-size:medium;line-height:125%;font-family:'Sitka Banner';-inkscape-font-specification:'Sitka Banner';letter-spacing:0px;word-spacing:0px;fill:#4eabff;fill-opacity:1;stroke:none;stroke-width:1px;stroke-linecap:butt;stroke-linejoin:miter;stroke-opacity:1" sodipodi:nodetypes="ccccscccccsscsscccc" inkscape:connector-curvature="0" id="path4141" d="m 272.03113,460.38207 c -31.51558,-0.82215 -61.66091,-5.61801 -90.43601,-14.38756 -28.7751,-9.04359 -54.12459,-21.64982 -76.04846,-37.8187 -21.923885,-16.44291 -39.462995,-36.44845 -52.617325,-60.01662 -12.88028,-23.56817 -19.32042,-50.56195 -19.32042,-80.98134 0,-35.62631 6.30312,-65.63462 18.90935,-90.02494 12.88028,-24.39032 30.14533,-44.12181 51.795175,-59.19448 21.92388,-15.07267 47.27337,-26.03461 76.04847,-32.88582 29.04914,-7.12527 59.60555,-11.236 91.66923,-12.33219 l -0.41108,26.71973 c -25.21246,1.64429 -47.54741,5.89205 -67.00486,12.74326 -19.45745,6.85121 -35.90036,16.99101 -49.32873,30.41939 -13.15434,13.15433 -23.29413,30.00831 -30.41939,50.56195 -6.85121,20.55364 -10.27682,45.21801 -10.27682,73.9931 0,23.56817 3.28857,45.21801 9.86574,64.9495 6.57717,19.73149 16.30589,36.85953 29.18617,51.3841 13.15434,14.52457 29.46022,26.17163 48.91767,34.94118 19.73149,8.76955 42.75157,13.97649 69.06022,15.62077 z" />
<text xml:space="preserve" style="font-style:normal;font-variant:normal;font-weight:normal;font-stretch:normal;font-size:100.45030212px;line-height:125%;font-family:'Sitka Banner';-inkscape-font-specification:'Sitka Banner';letter-spacing:0px;word-spacing:0px;fill:#3480c5;fill-opacity:1;stroke:none;stroke-width:1px;stroke-linecap:butt;stroke-linejoin:miter;stroke-opacity:1" x="33.622429" y="551.46509" id="text4162" sodipodi:linespacing="125%"><tspan sodipodi:role="line" id="tspan4164" x="33.622429" y="551.46509">saber</tspan></text>
<text xml:space="preserve" style="font-style:normal;font-variant:normal;font-weight:normal;font-stretch:normal;font-size:100.45030212px;line-height:125%;font-family:'Sitka Banner';-inkscape-font-specification:'Sitka Banner';letter-spacing:0px;word-spacing:0px;fill:#4eabff;fill-opacity:1;stroke:none;stroke-width:1px;stroke-linecap:butt;stroke-linejoin:miter;stroke-opacity:1" x="384.5896" y="551.77759" id="text4166" sodipodi:linespacing="125%"><tspan sodipodi:role="line" id="tspan4168" x="384.5896" y="551.77759">atual</tspan></text>
</svg>
